# xmcd
#
# Track frame offsets:
#	150
#	14800
#	30598
#	55309
#	71902
#	92786
#	110792
#	125709
#	145225
#	170120
#
# Disc length: 2528 seconds
#
# Revision: 1
# Processed by: cddbd v1.5.2PL0 Copyright (c) Steve Scherf et al.
# Submitted via: EZCDAudioConverter 2.1.5.1
#
DISCID=9e09de0a
DTITLE=Lady Antebellum - Wheels Up Tour
DYEAR=2015
DGENRE=Country
TTITLE0=Lady Antebellum - Long Stretch Of Love (Live)
TTITLE1=Lady Antebellum - Bartender (Live)
TTITLE2=Lady Antebellum - American Honey (Live)
TTITLE3=Lady Antebellum - Just A Kiss (Live)
TTITLE4=Lady Antebellum and Hunter Hayes - Compass (Live)
TTITLE5=Lady Antebellum - I Run To You (Live)
TTITLE6=Lady Antebellum - Downtown (Live)
TTITLE7=Lady Antebellum - 747 (Live)
TTITLE8=Lady Antebellum - Need You Now (Live)
TTITLE9=Lady Antebellum - We Owned The Night (Live)
EXTD=
EXTT0=
EXTT1=
EXTT2=
EXTT3=
EXTT4=
EXTT5=
EXTT6=
EXTT7=
EXTT8=
EXTT9=
PLAYORDER=
